<svg xmlns="http://www.w3.org/2000/svg" version="1.1" xmlns:xlink="http://www.w3.org/1999/xlink" xmlns:svgjs="http://svgjs.dev/svgjs" viewBox="0 0 1920 1080"><rect width="1920" height="1080" fill="#528fdb"></rect><g transform="matrix(7.04171909509728e-17,1.15,-1.15,7.04171909509728e-17,1532.321662902832,-508.01991233825674)"><path d="M0,-1080C-12.579303268743521,-989.3252305417259,-78.16682170484073,-733.5270260460936,-75.47581961246112,-535.9513832503552C-72.78481752008152,-338.3757404546168,19.616461235152688,-69.24682678344658,16.146012554277604,105.45385677443076C12.675563873402522,280.1545403323081,-109.93514307389523,338.0002297666598,-96.29851169771162,512.2527180969087C-82.661880321528,686.5052064271575,91.34249197435808,982.3733684769339,97.96580081137927,1150.968786755924C104.58910964840045,1319.564205034914,-40.23102520702129,1355.6533588968362,-56.5586586755845,1523.8252277708489C-72.88629214414772,1691.9970966448616,-9.426443112597417,2053.9708712951415,0,2160L 1920 2160 L 1920 -1080 Z" fill="url(&quot;#SvgjsLinearGradient1252&quot;)"></path><path d="M274.2857142857143,-1080C278.8367491930661,-933.4638099858911,289.68838458085594,-455.6061218923291,301.59192372982534,-200.78285991534645C313.49546287879474,54.0404020616362,337.29303028291923,181.29601420140648,345.70694917953074,448.93957186189596C354.12086807614224,716.5831295223854,363.9789762584637,1119.901748024573,352.0754371094943,1405.0784860475903C340.1718979605249,1690.2552240706077,287.2506680896776,2034.1797476745983,274.2857142857143,2160L 1920 2160 L 1920 -1080 Z" fill="url(&quot;#SvgjsLinearGradient1253&quot;)"></path><path d="M548.5714285714286,-1080C555.129594292665,-965.8596297727836,582.9098716934487,-620.0381776952877,587.9204228988475,-395.1577786367014C592.9309741042463,-170.2773795781151,592.3331604236724,55.85522925229711,578.6347358038211,269.2823943515177C564.9363111839697,482.7095594507383,513.1300589704358,678.0461460212666,505.7298751797394,885.4052119586223C498.329691389043,1092.764277895978,527.0933741610277,1301.004325302089,534.2336330596426,1513.436789975652C541.3738919582574,1725.8692546492148,546.1817959861309,2052.239464995942,548.5714285714286,2160L 1920 2160 L 1920 -1080 Z" fill="url(&quot;#SvgjsLinearGradient1254&quot;)"></path><path d="M822.8571428571428,-1080C831.1991165722457,-990.536986534976,855.2818321322463,-707.5361017716251,872.90898514776,-543.2219192098557C890.5361381632736,-378.90773664808637,940.1097218221989,-254.00820136035287,928.6200609502241,-94.11490462938363C917.1304000782493,65.77839210158561,832.662197956758,285.3227405684635,803.9710199159107,416.13786117595964C775.2798418750634,546.9529817834558,736.5575878421533,547.1413674062378,756.4729927051407,690.7758190155931C776.388397568128,834.4102706249485,899.6657406500119,1118.2166829312994,923.4634490938344,1277.9445708320918C947.2611575376568,1437.6724587328843,916.0269610741902,1502.1339082256966,899.259243368075,1649.1431464203479C882.4915256619597,1796.1523846149992,835.5908262756315,2074.857191070058,822.8571428571428,2160L 1920 2160 L 1920 -1080 Z" fill="url(&quot;#SvgjsLinearGradient1255&quot;)"></path><path d="M1097.142857142857,-1080C1111.545749021051,-976.6151787174122,1184.5650036456825,-677.2864512009712,1183.5602084120212,-459.6910723044733C1182.55541317836,-242.09569340797546,1103.0340835955349,1.8991110556737283,1091.114085740889,225.57227337898712C1079.1940878862433,449.2454357023005,1115.887301158715,655.2243344497754,1112.0402212841466,882.3479016354071C1108.1931414095782,1109.4714688210388,1070.5145005170273,1375.3716600986784,1068.031606493479,1588.3136764927772C1065.548712469931,1801.255692886876,1092.2909820346274,2064.7189460821296,1097.142857142857,2160L 1920 2160 L 1920 -1080 Z" fill="url(&quot;#SvgjsLinearGradient1256&quot;)"></path><path d="M1371.4285714285716,-1080C1362.5716793908298,-930.9511950113795,1307.193702234857,-440.7056238820395,1318.2872192021214,-185.70717006827658C1329.3807361693857,69.29128374548634,1416.0506712732983,177.8025150535321,1437.9896732321583,449.99072288257753C1459.9286751910183,722.178930711623,1461.0147479225457,1162.420530719759,1449.9212309552813,1447.422076905996C1438.827713988017,1732.423623092233,1384.5106813496898,2041.237012817666,1371.4285714285716,2160L 1920 2160 L 1920 -1080 Z" fill="url(&quot;#SvgjsLinearGradient1257&quot;)"></path><path d="M1645.7142857142856,-1080C1635.2963834322657,-1007.3046280346421,1582.1741245870949,-794.0524938462866,1583.2068720221666,-643.8277682078525C1584.2396194572384,-493.60304256941845,1630.0864956804737,-329.4674470164755,1651.910770324716,-178.65164616939552C1673.7350449689582,-27.835845322315578,1731.9205764319288,102.22417060007365,1714.15251988762,261.0670368746272C1696.3844633433112,419.90990314918076,1551.718147840181,605.2886147057226,1545.3024310588632,774.4055514779259C1538.8867142775455,943.5224882501292,1640.8293166177502,1129.8132319635565,1675.6582191997136,1275.7686575078471C1710.487121781677,1421.7240830521378,1759.266502131548,1502.766214328311,1754.2758465506433,1650.1381047436698C1749.2851909697388,1797.5099951590287,1663.8078791870118,2075.0230174572785,1645.7142857142856,2160L 1920 2160 L 1920 -1080 Z" fill="url(&quot;#SvgjsLinearGradient1258&quot;)"></path></g><defs><linearGradient x1="0.1" y1="0" x2="0" y2="1" id="SvgjsLinearGradient1252"><stop stop-color="#528fdb" offset="0"></stop><stop stop-color="#52a6db" offset="0"></stop></linearGradient><linearGradient x1="0.1" y1="0" x2="0" y2="1" id="SvgjsLinearGradient1253"><stop stop-color="#6fa2e1" offset="0"></stop><stop stop-color="#6fb5e1" offset="0.14285714285714285"></stop></linearGradient><linearGradient x1="0.1" y1="0" x2="0" y2="1" id="SvgjsLinearGradient1254"><stop stop-color="#8bb4e7" offset="0"></stop><stop stop-color="#8bc3e7" offset="0.2857142857142857"></stop></linearGradient><linearGradient x1="0.1" y1="0" x2="0" y2="1" id="SvgjsLinearGradient1255"><stop stop-color="#a8c7ed" offset="0"></stop><stop stop-color="#a8d2ed" offset="0.42857142857142855"></stop></linearGradient><linearGradient x1="0.1" y1="0" x2="0" y2="1" id="SvgjsLinearGradient1256"><stop stop-color="#c5d9f3" offset="0"></stop><stop stop-color="#c5e1f3" offset="0.5714285714285714"></stop></linearGradient><linearGradient x1="0.1" y1="0" x2="0" y2="1" id="SvgjsLinearGradient1257"><stop stop-color="#e2ecf9" offset="0"></stop><stop stop-color="#e2f0f9" offset="0.7142857142857143"></stop></linearGradient><linearGradient x1="0.1" y1="0" x2="0" y2="1" id="SvgjsLinearGradient1258"><stop stop-color="#feffff" offset="0"></stop><stop stop-color="#feffff" offset="0.8571428571428571"></stop></linearGradient></defs></svg>